<?xml version="1.0" encoding="UTF-8" standalone="no"?>
<svg
   version="1.0"
   viewBox="0 0 16 16"
   id="svg3914"
   sodipodi:docname="pop-os-logo-icon.svg"
   inkscape:version="1.2.2 (b0a8486541, 2022-12-01)"
   xmlns:inkscape="http://www.inkscape.org/namespaces/inkscape"
   xmlns:sodipodi="http://sodipodi.sourceforge.net/DTD/sodipodi-0.dtd"
   xmlns:xlink="http://www.w3.org/1999/xlink"
   xmlns="http://www.w3.org/2000/svg"
   xmlns:svg="http://www.w3.org/2000/svg">
  <defs
     id="defs3918">
    <linearGradient
       inkscape:collect="always"
       xlink:href="#linearGradient7055"
       id="linearGradient7057"
       x1="226.25"
       y1="252"
       x2="286.25"
       y2="252"
       gradientUnits="userSpaceOnUse" />
    <linearGradient
       inkscape:collect="always"
       id="linearGradient7055">
      <stop
         style="stop-color:#025438;stop-opacity:1;"
         offset="0"
         id="stop7051" />
      <stop
         style="stop-color:#025438;stop-opacity:0;"
         offset="1"
         id="stop7053" />
    </linearGradient>
  </defs>
  <sodipodi:namedview
     id="namedview3916"
     pagecolor="#ffffff"
     bordercolor="#000000"
     borderopacity="0.25"
     inkscape:showpageshadow="2"
     inkscape:pageopacity="0.0"
     inkscape:pagecheckerboard="0"
     inkscape:deskcolor="#d1d1d1"
     showgrid="false"
     inkscape:zoom="51.375"
     inkscape:cx="9.3819951"
     inkscape:cy="6.6180049"
     inkscape:window-width="1920"
     inkscape:window-height="998"
     inkscape:window-x="0"
     inkscape:window-y="0"
     inkscape:window-maximized="1"
     inkscape:current-layer="svg3914" />
  <g
     transform="matrix(0.24983434,0,0,0.24983434,-56.526354,-55.454583)"
     id="g14">
    <circle
       cx="256.24789"
       cy="251.98747"
       r="30.069838"
       style="fill:#4ba98a;fill-opacity:0.79215688;stroke-width:1.00233"
       id="circle2-3"
       inkscape:label="circle2-3" />
    <circle
       cx="256.25"
       cy="252"
       r="30"
       style="fill:url(#linearGradient7057);fill-opacity:1"
       id="circle2" />
    <g
       transform="matrix(0.06342,0,0,0.06342,226.25,221.94)"
       fill="#ffffff"
       stroke-width="3.784"
       id="g12">
      <rect
         x="236.5"
         y="710.5"
         width="488.76999"
         height="78.833"
         rx="39.417"
         ry="39.417"
         id="rect4" />
      <path
         d="m 536,357 c -24,51 -64,92 -120,112 l 48,125 c 9,23 17,47 10,69 -7,22 -39,29 -62,5 -44,-47 -192,-343 -203,-365 -11,-22 -23,-40 -23,-62 1,-33 52,-67 77,-84 25,-17 74,-40 117,-41 43,-1 61,9 86,25 38,25 65,64 75,109 10,45 7,80 -5,105 M 423,301 c -9,-31 -28,-61 -53,-81 -5,-4 -11,-9 -18,-11 -46,-15 -26,62 -19,82 7,20 26,62 47,83 5,5 10,9 16,10 6,1 18,-5 23,-13 5,-8 6,-14 6,-22 a 128,128 0 0 0 -2,-48 z"
         id="path6" />
      <path
         d="m 625,664 c -2,9 -7,17 -15,22 -8,5 -27,5 -38,-4 -11,-9 -13,-24 -10,-36 3,-12 13,-25 27,-29 29,-9 42,23 36,47 z"
         id="path8" />
      <path
         d="m 607,573 c -18,-7 -12,-103 5,-220 5,-32 13,-48 22,-56 9,-8 36,-12 52,-9 a 90,90 0 0 1 49,24 c 12,11 13,23 9,38 -4,15 -18,47 -29,70 l -28,53 c -54,96 -65,106 -80,100 z"
         id="path10" />
    </g>
  </g>
</svg>
