<?xml version="1.0" encoding="utf-8"?>
<svg id="svg4434" height="128" width="128" version="1.1" xmlns="http://www.w3.org/2000/svg">
  <defs id="defs4436">
    <clipPath clipPathUnits="userSpaceOnUse" id="clipPath1267">
      <path id="path1269" d="m -276,-164 c 19.944,0 36,16.056 36,36 v 20 290 20 c 0,19.944 -16.056,36 -36,36 h -376 c -19.944,0 -36,-16.056 -36,-36 v -20 -290 -20 c 0,-19.944 16.056,-36 36,-36 z" style="fill:#4a148c;fill-opacity:1;stroke:none"/>
    </clipPath>
    <filter style="color-interpolation-filters:sRGB" id="filter1767" x="-0.031999999" width="1.064" y="-0.0073846152" height="1.0147692">
      <feGaussianBlur stdDeviation="1.28" id="feGaussianBlur1769"/>
    </filter>
    <filter style="color-interpolation-filters:sRGB" id="filter1646" x="-0.021249324" width="1.0424986" y="-0.027568702" height="1.0551374">
      <feGaussianBlur stdDeviation="2.2665783" id="feGaussianBlur1648"/>
    </filter>
    <filter style="color-interpolation-filters:sRGB" id="filter1763" x="-0.026643571" width="1.0532871" y="-0.0077438837" height="1.0154878">
      <feGaussianBlur stdDeviation="1.0661823" id="feGaussianBlur1765"/>
    </filter>
  </defs>
  <g id="g1114" transform="matrix(0.21,0,0,0.21,18.05,52.326)">
    <path style="display: inline; fill-opacity: 1; stroke: none; fill: rgb(233, 186, 32);" d="M 83,-125 V 223 H 443 V -89 c 0,-19.944 -16.056,-36 -36,-36 z" id="rect4229"/>
    <path style="display: inline; fill-opacity: 1; stroke: none; fill: rgb(221, 104, 42);" d="m 91,83 c 150.81885,0 273.42223,30.22195 352,56.75195 V 189 217 227 H 91 Z" id="path4755"/>
    <path style="display:inline;opacity:0.2;fill:#ffffff;fill-opacity:1;stroke:none;enable-background:new" d="m 91,83 c 150.81885,0 273.42223,30.22195 352,56.75195 v 2 C 364.42223,115.22195 241.81885,85 91,85 Z" id="path4757"/>
    <path style="display: inline; fill-opacity: 1; stroke: none; fill: rgb(65, 198, 200);" d="m 70,211 v 66 h 337 c 19.944,0 36,-16.056 36,-36 v -30 z" id="path1208"/>
    <path id="path2004" d="m -336,-164 h 96 v 416 h -96 z" clip-path="url(#clipPath1267)" style="display:inline;opacity:0.2;fill:#000000;fill-opacity:1;stroke:none;stroke-width:16;stroke-linecap:round;stroke-linejoin:miter;stroke-miterlimit:10;stroke-dasharray:none;stroke-dashoffset:0;stroke-opacity:1;filter:url(#filter1767);enable-background:new" transform="matrix(-1,0,0,1,-245,39)"/>
    <path style="display: inline; fill-opacity: 1; stroke: none; fill: rgb(37, 70, 157);" d="m 31,-125 c -19.944,0 -36,16.056 -36,36 v 278 28 24 c 0,19.944 16.056,36 36,36 h 60 v -60 -28 -314 z" id="path898"/>
    <rect y="-3.0000038" x="-267" height="32.000004" width="240" id="rect1955" style="display: inline; fill-opacity: 1; stroke: none; stroke-width: 16; stroke-linecap: round; stroke-linejoin: miter; stroke-miterlimit: 10; stroke-dasharray: none; stroke-dashoffset: 0; stroke-opacity: 1; fill: rgb(156, 156, 156);" ry="16.000002" transform="scale(-1)" rx="0"/>
    <path style="display:inline;opacity:0.3;fill:#ffffff;fill-opacity:1;stroke:none;enable-background:new" d="m 31,-125 c -19.944,0 -36,16.056 -36,36 v 2 c 0,-19.944 16.056,-36 36,-36 h 376 c 19.944,0 36,16.056 36,36 v -2 c 0,-19.944 -16.056,-36 -36,-36 z" id="path1254"/>
    <rect y="99" x="27" height="32" width="32" id="rect1959" style="display: inline; fill-opacity: 1; stroke: none; stroke-width: 16; stroke-linecap: round; stroke-linejoin: miter; stroke-miterlimit: 10; stroke-dasharray: none; stroke-dashoffset: 0; stroke-opacity: 1; fill: rgb(156, 156, 156);" ry="16"/>
    <rect style="display: inline; fill-opacity: 1; stroke: none; stroke-width: 16; stroke-linecap: round; stroke-linejoin: miter; stroke-miterlimit: 10; stroke-dasharray: none; stroke-dashoffset: 0; stroke-opacity: 1; fill: rgb(156, 156, 156);" id="rect1953" width="32" height="32" x="27" y="-93" ry="16"/>
    <rect style="display: inline; fill-opacity: 1; stroke: none; stroke-width: 16; stroke-linecap: round; stroke-linejoin: miter; stroke-miterlimit: 10; stroke-dasharray: none; stroke-dashoffset: 0; stroke-opacity: 1; fill: rgb(156, 156, 156);" id="rect1957" width="32" height="32" x="27" y="35" ry="16"/>
    <rect style="display: inline; fill-opacity: 1; stroke: none; stroke-width: 16; stroke-linecap: round; stroke-linejoin: miter; stroke-miterlimit: 10; stroke-dasharray: none; stroke-dashoffset: 0; stroke-opacity: 1; fill: rgb(156, 156, 156);" id="rect1974" width="32" height="32" x="27" y="163" ry="16"/>
    <path id="path1641" d="m 251,53 -29.82031,1.78125 -4.93946,0.02344 c -0.63872,0.02214 -1.25142,0.2663 -1.73046,0.68945 l -43.56836,40.92383 c -2.02177,1.79639 -3.41378,4.19388 -3.97266,6.83984 l -27.93164,145.42188 c -0.33351,1.51042 1.72866,2.29375 2.48242,0.94336 l 57.42578,-102.88477 c 2.56031,-4.56466 7.66823,-7.08079 12.84766,-6.32812 l 23.16992,3.36523 L 267,145 Z m 36,0 -16,92 27.59375,-1.16211 23.61328,-3.42773 c 5.17943,-0.75268 10.28734,1.76346 12.84766,6.32812 l 57.42578,102.88281 c 0.75376,1.35038 2.81594,0.56707 2.48242,-0.94336 L 367.03125,103.25586 c -0.55852,-2.64597 -1.95126,-5.04345 -3.97266,-6.83984 L 319.49023,55.49414 c -0.47904,-0.42315 -1.09174,-0.66732 -1.73046,-0.68945 l -5.02149,-0.02735 z m -48.44141,108.67578 c -1.60333,7.886 -6.77672,35.41181 -2.09375,36.25195 14.04927,2.52003 47.1613,2.5937 61.21094,0 4.65901,-0.8601 -0.43368,-28.25357 -2.5625,-36.06445 z" style="clip-rule:evenodd;display:inline;opacity:0.1;fill:#000000;fill-opacity:1;fill-rule:nonzero;stroke:none;stroke-width:0.362908;stroke-miterlimit:10;filter:url(#filter1646);enable-background:new"/>
    <path style="clip-rule:evenodd;display:inline;fill:#ececec;fill-opacity:1;fill-rule:nonzero;stroke:none;stroke-width:0.362908;stroke-miterlimit:10;enable-background:new" d="M 312.73885,50.778028 287,49 l -16,92 27.59395,-1.16128 23.61383,-3.42919 c 5.17943,-0.75268 10.28678,1.76355 12.8471,6.32821 l 57.42528,102.8838 c 0.75376,1.35038 2.81719,0.56701 2.48367,-0.94342 L 367.03194,99.256781 c -0.55852,-2.645965 -1.95147,-5.043592 -3.97287,-6.839988 L 319.48953,51.493937 c -0.47904,-0.423151 -1.09076,-0.666844 -1.72948,-0.688981 z m -91.55921,0.0036 -4.93969,0.02395 c -0.63872,0.02214 -1.25044,0.26583 -1.72948,0.688982 l -43.56954,40.922855 c -2.02177,1.796396 -3.41399,4.194023 -3.97287,6.839988 l -27.9319,145.421347 c -0.33351,1.51042 1.7299,2.2938 2.48366,0.94341 l 57.4253,-102.8838 c 2.56031,-4.56466 7.66836,-7.08088 12.84779,-6.32821 l 23.17086,3.3647 L 267,141 251,49 Z" id="path9"/>
    <path id="path872" style="clip-rule:evenodd;display:inline;fill:#d9d9d9;fill-opacity:1;fill-rule:nonzero;stroke:none;stroke-width:0.362908;stroke-miterlimit:10;stroke-opacity:1;enable-background:new" d="m 238.5578,157.67523 c -1.60333,7.886 -6.77514,35.41151 -2.09217,36.25165 14.04927,2.52003 47.16103,2.5937 61.21067,0 4.65901,-0.8601 -0.43404,-28.25351 -2.56286,-36.06439"/>
    <path id="path1314" d="m 267.00034,-165.66021 c -11.06616,0 -48.02014,102.01315 -48.02014,184.99397 0,9.065825 0.84906,20.736596 2.19944,33.447099 l 13.78413,88.993371 c 1.28542,6.33094 2.64252,11.24726 3.41007,13.821 l 0.18396,4.08 c 3.88909,2.12132 16.27734,4.96526 28.4422,5.09254 12.72613,0.13316 21.93698,-2.23058 28.11344,-4.90528 l 0.0775,-4.64504 c 0.82961,-2.72218 2.15785,-7.43574 3.40299,-13.37873 l 14.1449,-89.060692 c 1.39974,-12.800504 2.28095,-24.494211 2.28095,-33.444268 0,-82.98082 -36.95329,-184.99397 -48.01946,-184.99397 z" style="clip-rule:evenodd;display:inline;opacity:0.1;fill:#000000;fill-opacity:1;fill-rule:nonzero;stroke-width:0.362908;stroke-miterlimit:10;filter:url(#filter1763);enable-background:new"/>
    <path style="clip-rule:evenodd;display:inline;opacity:0.2;fill:#ffffff;fill-opacity:1;fill-rule:nonzero;stroke-width:0.362908;stroke-miterlimit:10;enable-background:new" d="m 251,49 -29.82031,1.78125 -4.93946,0.0234 c -0.63872,0.0221 -1.25142,0.2663 -1.73046,0.68945 l -43.56836,40.92383 c -2.02177,1.79639 -3.41378,4.19388 -3.97266,6.83984 l -27.93164,145.42188 c -0.0898,0.40685 0.002,0.75153 0.1875,1.02539 l 27.74414,-144.44727 c 0.55888,-2.64596 1.95089,-5.04345 3.97266,-6.83984 L 214.50977,53.4941 c 0.47904,-0.42315 1.09174,-0.66731 1.73046,-0.68945 l 4.93946,-0.0234 L 251,51 266.65039,140.98633 267,141 Z m 36,0 -16,92 0.34961,-0.0156 L 287,51 l 25.73828,1.77734 5.02149,0.0273 c 0.63872,0.0221 1.25142,0.2663 1.73046,0.68945 l 43.56836,40.92188 c 2.0214,1.79639 3.41414,4.19387 3.97266,6.83984 l 27.74414,144.44922 c 0.18555,-0.27386 0.27734,-0.62049 0.1875,-1.02735 L 367.03125,99.25586 c -0.55852,-2.64597 -1.95126,-5.04345 -3.97266,-6.83984 L 319.49023,51.49414 c -0.47904,-0.42315 -1.09174,-0.66732 -1.73046,-0.68945 l -5.02149,-0.0273 z" id="path1337"/>
    <path style="clip-rule:evenodd;display:inline;fill:#ffffff;fill-opacity:1;fill-rule:nonzero;stroke:none;stroke-width:0.362908;stroke-miterlimit:10;enable-background:new" d="m 267.00034,-167.66021 c -11.06616,0 -48.02014,102.01315 -48.02014,184.99397 0,9.065825 0.84906,20.736596 2.19944,33.447099 l 13.78413,88.993371 c 1.28542,6.33094 2.64252,11.24726 3.41007,13.821 l 0.18396,4.08 c 3.88909,2.12132 16.27734,4.96526 28.4422,5.09254 12.72613,0.13316 21.93698,-2.23058 28.11344,-4.90528 l 0.0775,-4.64504 c 0.82961,-2.72218 2.15785,-7.43574 3.40299,-13.37873 l 14.1449,-89.060692 c 1.39974,-12.800504 2.28095,-24.494211 2.28095,-33.444268 0,-82.98082 -36.95329,-184.99397 -48.01946,-184.99397 z" id="path876"/>
    <path d="m 287.14905,-94.33778 c -8.66117,8.53959 -31.6369,8.53959 -40.29807,0 -3.80981,-3.75647 0.62964,-20.12618 4.20574,-23.17751 3.6955,-3.15404 28.28,-3.07819 31.88658,0 3.5761,3.05133 8.01556,19.42104 4.20575,23.17751" style="clip-rule: evenodd; display: inline; fill-opacity: 1; fill-rule: nonzero; stroke-width: 0.362908; stroke-miterlimit: 10; fill: rgb(65, 198, 200);" id="path868"/>
    <path id="path20" d="m 232.36133,70.71289 1.9414,12.5332 c 9.02133,1.52774 20.34903,2.84766 32.69727,2.84766 12.24927,0 23.49086,-1.30043 32.47656,-2.8125 l 1.99024,-12.53711 c -8.92982,1.69206 -21.07194,3.34961 -34.4668,3.34961 -13.47749,0 -25.69352,-1.67799 -34.63867,-3.38086 z m 4.11133,26.53516 1.92773,12.45117 c 8.26153,1.2317 18.05616,2.19726 28.59961,2.19726 10.40678,0 20.07953,-0.94171 28.27344,-2.15039 l 1.97851,-12.45312 C 288.87109,98.69302 278.3969,99.89648 267,99.89648 c -11.52027,0 -22.10201,-1.22895 -30.52734,-2.64843 z" style="color:#000000;font-style:normal;font-variant:normal;font-weight:normal;font-stretch:normal;font-size:medium;line-height:normal;font-family:sans-serif;font-variant-ligatures:normal;font-variant-position:normal;font-variant-caps:normal;font-variant-numeric:normal;font-variant-alternates:normal;font-feature-settings:normal;text-indent:0;text-align:start;text-decoration:none;text-decoration-line:none;text-decoration-style:solid;text-decoration-color:#000000;letter-spacing:normal;word-spacing:normal;text-transform:none;writing-mode:lr-tb;direction:ltr;text-orientation:mixed;dominant-baseline:auto;baseline-shift:baseline;text-anchor:start;white-space:normal;shape-padding:0;clip-rule:evenodd;display:inline;overflow:visible;visibility:visible;isolation:auto;mix-blend-mode:normal;color-interpolation:sRGB;color-interpolation-filters:linearRGB;solid-color:#000000;solid-opacity:1;vector-effect:none;fill:#fada7b;fill-opacity:1;fill-rule:evenodd;stroke:none;stroke-width:12;stroke-linecap:butt;stroke-linejoin:miter;stroke-miterlimit:10;stroke-dasharray:none;stroke-dashoffset:0;stroke-opacity:1;color-rendering:auto;image-rendering:auto;shape-rendering:auto;text-rendering:auto;enable-background:accumulate"/>
    <path id="path1271" d="M 31,277 C 11.056,277 -5,260.944 -5,241 v -2 c 0,19.944 16.056,36 36,36 h 376 c 19.944,0 36,-16.056 36,-36 v 2 c 0,19.944 -16.056,36 -36,36 z" style="display:inline;opacity:0.2;fill:#000000;fill-opacity:1;stroke:none;enable-background:new"/>
  </g>
</svg>